<?xml version="1.0" encoding="UTF-8"?>
<svg width="2400px" height="3600px" clip-rule="evenodd" fill-rule="evenodd" image-rendering="optimizeQuality" shape-rendering="geometricPrecision" text-rendering="geometricPrecision" viewBox="0 0 2400 3394.29" xmlns="http://www.w3.org/2000/svg">
 <defs>
  <style type="text/css">.fil0 {fill:#1F1A17} .fil2 {fill:white} .fil3 {fill:#F0CF5C} .fil1 {fill:#F54053}</style>
 </defs>
 <path class="fil0" d="m1263.7 3002.7l-62.401 65.602-62.232-65.431c-95.336-96.667-213.26-138.94-338.08-183.29-153.93-54.695-287.86-106.43-401.97-230.03-180.75-195.79-247.15-432.54-247.15-695.9v-1358h2098.9v1358c0 263.36-66.397 500.11-247.15 695.9-114.12 123.62-248.07 175.35-402.02 230.05-124.72 44.315-242.57 86.565-337.87 183.1z"/>
 <path class="fil1" d="m217 600.67h1968.6v1292.9c0 341.01-119.26 531.91-229.88 651.73-213.5 231.26-521.58 191.47-738.82 412.02l-15.622 16.424-15.447-16.241c-217.25-220.75-525.43-180.87-738.99-412.2-110.62-119.82-229.88-310.72-229.88-651.73v-1292.9z"/>
 <path class="fil0" d="m601.02 1178.9c-0.19314-0.35429-0.36343-0.72-0.51657-1.1051l-18.912-40.453-0.10743-0.22514-8e-3 -0.019429-55.47-118.64c-0.16686-0.31543-0.31771-0.63543-0.45029-0.96229l-112.02-239.6c-1.776-3.2823-1.6743-7.4297 0.61714-10.687 3.2251-4.5874 9.5611-5.6903 14.149-2.464 15.416 10.813 35.595 13.802 55.77 16.787 44.209 6.5417 88.421 13.099 103.06 87.856 67.881-22.409 116.18-12.211 144.88 30.598 1.1531 1.4434 1.9246 3.2114 2.1486 5.1806 3.3131 28.92-0.10171 53.869-8.5223 75.809-6.5394 17.041-16.045 32.126-27.722 45.729 21.744 6.8057 43.194 6.5314 64.35-0.81486 20.961-7.2766 41.881-21.502 62.745-42.679-26.026-0.94971-45.142-7.6971-57.771-17.526-9.1017-7.0811-14.978-15.782-17.795-25.203-2.824-9.4537-2.4983-19.494 0.784-29.241 4.9977-14.83 16.938-28.947 35.022-38.91 2.336-19.342 8.0354-37.326 17.784-53.645 10.679-17.873 26.11-33.566 47.183-46.659l0.013714 0.024c3.4469-2.1429 7.9909-2.088 11.432 0.49257 13.818 10.382 25.849 21.845 35.001 35.024 8.0194 11.544 13.859 24.4 16.813 38.963 16.089 2.72 29.914 7.3806 41.034 14.363 13.493 8.4674 22.935 20.176 27.574 35.707 12.352 34.049 1.7829 49.29-8.7863 64.523-2.6811 3.8697-5.3634 7.7486-7.3371 11.899 17.205 10.722 35.479 15.301 54.831 13.739 17.606-1.4206 36.271-7.8663 55.978-19.337-38.813-17.117-63.867-37.918-76.215-58.794-7.9886-13.504-10.872-27.151-8.9349-40.103 1.9509-13.043 8.7109-25.064 19.994-35.214 18.461-16.606 49.601-28.312 91.87-30.898 20.466-49.986 39.51-87.531 57.128-112.62 20.119-28.65 39.462-42.144 58.015-40.471 29.935 2.696 40.694 39.928 61.561 112.18 3.272 11.328 6.8229 23.648 11.533 39.441 64.985 24.119 99.378 51.645 105.73 82.287 6.2309 30.073-14.071 61.095-58.57 92.973 14.034 12.406 30.251 17.823 48.337 17.272 18.8-0.57486 39.863-7.4114 62.832-19.472-18.409-12.895-28.545-29.251-31.951-45.696-2.232-10.779-1.5349-21.571 1.6526-31.48 3.1943-9.9314 8.888-18.965 16.634-26.197 12.543-11.709 30.381-18.709 51.582-17.151 6.8777-30.613 23.282-48.019 41.543-54.634 10.177-3.6846 20.87-3.9989 30.867-1.3589 9.9074 2.6149 19.123 8.1211 26.45 16.091 13.44 14.622 20.597 37.506 13.713 65.715 26.327 5.0137 45.005 16.55 56.04 30.811 7.1829 9.2811 11.175 19.705 12.001 30.326 0.82629 10.601-1.536 21.343-7.0571 31.273-7.5771 13.632-21.154 25.635-40.554 33.301 12.008 12.606 27.064 20.763 44.762 24.995 19.319 4.6194 41.881 4.6846 67.197 0.81029-25.262-36.925-28.205-74.789-18.649-102.21 4.0069-11.495 10.225-21.262 17.97-28.53 8.1131-7.6103 17.893-12.519 28.624-13.914 15.99-2.08 33.682 3.6686 50.419 20.021 10.931-37.999 30.358-66.101 56.205-86.698 29.776-23.733 67.85-37.174 111.1-44.173v0.0011429c2.3417-0.37029 4.8286 0.067429 6.9931 1.4286 4.7417 2.9829 6.1634 9.2491 3.1806 13.99-24.202 38.481-40.526 84.44-56.866 130.46-13.425 37.806-26.872 75.662-44.813 110.11-9.656 18.539-24.84 30.795-40.342 42.783l-0.40686 0.33486c-0.19657 0.15657-0.40686 0.30971-0.61257 0.448l-1.3166 1.0171c-13.344 10.301-26.747 20.643-35.255 34.379-11.79 19.033-20.882 41.024-28.441 64.73l-0.104 0.33371-0.026286 0.073143c-9.9326 31.251-17.221 65.471-24.541 99.846-1.8983 8.9189-3.7966 17.817-6.6069 30.498-0.077714 0.56571-0.19771 1.1257-0.37486 1.6869-1.6891 5.3554-7.4023 8.3269-12.758 6.6377-168.75-53.368-341.46-80.903-518.34-81.325-177.01-0.42171-358.36 26.277-544.23 81.363l-0.0022857-0.0057143c-4.7246 1.3897-9.8914-0.84229-12.04-5.44l-24.119-51.585c-0.69829-0.90971-1.2469-1.9474-1.6137-3.1029-0.086857-0.27886-0.16686-0.56114-0.22971-0.84229l-34.711-74.238z"/>
 <path class="fil0" d="m1190.2 1967.2c-68.902 0.50057-137.6-1.7314-206.1-6.44-2.0354-0.098286-4.064-0.80229-5.7874-2.1577-4.4114-3.4663-5.176-9.856-1.7086-14.267 27.584-35.01 52.706-71.13 73.879-109.02 18.224-32.608 33.609-66.67 45.231-102.64-33.168 9.6331-67.248 23.92-101.92 41.265-40.986 20.505-82.943 45.381-125.27 71.96l-0.0045714-0.0057143c-1.2 0.75886-2.5863 1.28-4.088 1.4743-5.5509 0.72457-10.642-3.1897-11.367-8.7406-9.6617-72.954-14.714-145.25-14.677-216.81 0.036571-71.728 5.16-142.54 15.845-212.34l0.012571 0.0022857c0.28229-1.8846 1.0903-3.7177 2.4514-5.248 3.7303-4.192 10.154-4.5646 14.346-0.83429 34.576 30.855 71.958 58.59 113.8 81.325 0.17143 0.08 0.33943 0.16343 0.50857 0.25486 38.689 20.973 81.241 37.736 128.97 48.819-2.1589-44.097-15.622-82.133-37.814-116.74-24.603-38.374-59.967-72.731-102.61-106.54-2.2377-1.6617-3.792-4.2377-4.0629-7.2309-0.50286-5.5737 3.608-10.506 9.1806-11.009 71.867-6.6377 144.15-10.546 216.84-11.719 72.787-1.1714 145.83 0.38514 219.13 4.672l-0.0022857 0.022857c2.0149 0.10971 4.0229 0.81829 5.7257 2.1634 4.3897 3.4663 5.136 9.8377 1.6686 14.227-33.351 42.28-63.184 83.75-87.936 126.66-21.443 37.175-39.107 75.49-51.989 116.44 39.179-13.715 78.464-31.494 117.82-52.758 45.491-24.577 91.059-53.835 136.67-86.886l0.0057143 8e-3c1.3886-1.0069 3.0571-1.6834 4.8834-1.8766 5.5737-0.592 10.576 3.4491 11.168 9.0229 7.616 69.938 11.328 139.99 11.133 210.15-0.19314 70.246-4.2971 140.32-12.301 210.22h-0.0068571c-0.19657 1.7451-0.84571 3.4651-1.9817 4.9691-3.3794 4.4766-9.7509 5.3657-14.227 1.9863-36.101-27.333-76.986-51.587-122.06-73.133-39.529-18.894-82.427-35.773-128.27-50.878 13.298 34.338 28.793 68.703 46.466 103.08 21.042 40.928 45.193 81.882 72.446 122.85l-0.013714 8e-3c0.89714 1.3554 1.4869 2.9509 1.6446 4.6823 0.50171 5.5737-3.608 10.506-9.1817 11.008-68.782 6.2469-137.6 9.4949-206.44 9.9954z"/>
 <path class="fil2" d="m1004.4 1941.7c62.089 3.8549 124.03 5.6571 185.79 5.2091 62.575-0.45371 125.18-3.208 187.8-8.448-23.858-36.827-45.262-73.67-64.216-110.53-21.407-41.637-39.686-83.309-54.825-125-1.9086-5.2686 0.81486-11.088 6.0823-12.997 2.1714-0.78514 4.4297-0.792 6.4754-0.15086l0.0022857-8e-3c54.062 16.912 104.55 36.241 150.86 58.376 40.561 19.387 77.784 40.87 111.26 64.699 6.6949-63.633 10.136-127.12 10.311-190.46 0.17714-63.454-2.9097-127-9.2503-190.64-41.525 29.375-83.099 55.623-124.73 78.114-46.4 25.069-92.921 45.458-139.57 60.28-5.3326 1.6891-11.029-1.264-12.718-6.5977-0.624-1.9737-0.61829-3.992-0.086857-5.8434 13.627-49.705 33.93-95.414 59.36-139.5 22.304-38.671 48.525-76.049 77.627-113.78-66.545-3.4594-132.66-4.6709-198.33-3.6103-63.797 1.0274-127.31 4.1874-190.52 9.4663 35.841 30.215 65.878 61.369 87.957 95.802 26.319 41.045 41.298 86.577 41.295 140.39 0 5.5954-4.5383 10.133-10.134 10.133-0.70857 0-1.3954-0.070857-2.0651-0.20914l-0.0022857 0.012571c-55.008-11.414-103.42-29.909-147.03-53.55-0.19086-0.10286-0.37371-0.20914-0.55543-0.32343-37.699-20.497-71.783-44.793-103.43-71.655-8.7543 63.088-12.981 126.75-13.011 190.93-0.032 65.48 4.2651 131.67 12.517 198.51 38.158-23.655 76.097-45.769 113.56-64.512 42.086-21.055 83.446-37.774 123.62-47.496 5.4434-1.3166 10.926 2.0286 12.242 7.472 0.42743 1.7669 0.37029 3.5303-0.098286 5.1623l0.018286 0.0045714c-12.47 43.849-30.405 85.009-52.307 124.21-18.766 33.583-40.361 65.599-63.882 96.553z"/>
 <path class="fil0" d="m1099.8 2242c-11.817-37.053-28.157-73.085-47.907-108.35-23.071-41.189-50.837-81.317-81.53-120.77-3.4446-4.432-2.6423-10.821 1.7897-14.266 1.6903-1.3143 3.6663-2.0137 5.6549-2.1257 72.971-6.0434 145.42-8.7749 217.33-8.1863 71.861 0.58629 142.85 4.5074 212.94 11.749 5.5737 0.57029 9.6309 5.5554 9.0606 11.129-0.17029 1.672-0.744 3.2011-1.6069 4.5177l0.018286 0.011429c-26.042 39.766-50.351 80.665-71.875 123.38-18.274 36.267-34.597 73.867-48.323 113.22 39.242-17.29 77.8-36.232 115.52-57.138 44.36-24.585 87.509-51.838 129.2-82.25 4.5189-3.2926 10.856-2.296 14.147 2.224 1.1463 1.5726 1.7691 3.3634 1.9074 5.1703l0.04-0.0045714c12.496 153.53 10.928 307.14-4.7097 460.81-0.54743 5.5737-5.5154 9.6491-11.088 9.1017-2.1474-0.21143-4.0766-1.0846-5.6-2.3886l-0.0045714 0.0045714c-99.475-85.264-170.57-136.47-211.56-153.23-12.431-5.0811-21.13-6.7851-26.022-5.096-2.5886 0.89371-3.7989 4.408-3.6034 10.546 0.54629 17.206 11.783 46.795 34.058 88.871 10.439 19.715 27.717 42.744 46.977 68.414 17.862 23.803 37.397 49.837 55.032 77.831 2.9829 4.7406 1.5611 11.006-3.1806 13.989-1.416 0.89143-2.9703 1.384-4.5314 1.5189l0.0022857 0.029714c-80.733 6.9794-158.59 10.79-233.27 11.095-74.529 0.30286-145.47-2.9086-212.48-9.9646-5.5737-0.57029-9.6309-5.5554-9.0606-11.129 0.22514-2.2011 1.1474-4.1714 2.5143-5.7074 36.054-41.546 67.736-84.341 94.026-128.66 22.361-37.689 40.807-76.439 54.703-116.39-41.975 18.285-82.985 39.219-123.3 62.027-46.947 26.561-92.915 55.646-138.35 86.064-4.6537 3.1154-10.954 1.8709-14.07-2.7829-1.0663-1.5931-1.6149-3.3829-1.6983-5.1669h-0.0091429c-3.6354-72.896-3.5829-146.62-0.0091429-221.12 3.5726-74.486 10.666-149.74 21.113-225.72 0.74514-5.5509 5.8537-9.4469 11.406-8.7029 2.0446 0.27543 3.8674 1.1394 5.3143 2.4011 34.855 28.337 71.878 53.861 111.55 75.91 34.395 19.118 70.786 35.634 109.49 49.13z"/>
 <path class="fil2" d="m1069.6 2123.7c23.663 42.249 42.63 85.798 55.134 131.12 0.56914 1.888 0.59429 3.968-0.046857 5.9909-1.6891 5.3326-7.384 8.2857-12.718 6.5966-46.991-14.946-90.663-34.114-131.53-56.83-35.553-19.762-68.997-42.215-100.67-66.905-9.0754 69.405-15.319 138.17-18.583 206.25-3.2491 67.762-3.5566 134.87-0.80114 201.3 41-27.105 82.446-53.018 124.66-76.899 47.48-26.862 95.986-51.189 145.99-71.775l0.0022857 0.0034286c2.0857-0.86057 4.4663-1.0297 6.7943-0.32343 5.3554 1.624 8.3806 7.2834 6.7577 12.639-14.965 49.147-36.457 96.311-63.445 141.8-23.806 40.131-51.92 79.024-83.624 116.88 60.734 5.6697 124.5 8.2503 191.06 7.9771 68.357-0.27886 140.03-3.5977 214.73-9.6823-14.777-22.19-30.405-43.016-44.915-62.353-19.832-26.433-37.623-50.143-48.727-71.117-23.718-44.801-35.715-77.352-36.362-97.693-0.51086-16.086 5.2869-26.194 17.273-30.337 9.6777-3.3417 23.13-1.504 40.25 5.4937 40.949 16.743 108.91 64.848 202.32 143.95 13.153-139.92 14.533-279.91 4.1371-419.96-37.883 26.77-76.787 51.007-116.56 73.053-44.952 24.914-91.109 47.101-138.23 67.056l-0.0068571-0.011429c-2.1429 0.90514-4.5989 1.0857-6.9897 0.32914-5.3326-1.6891-8.2857-7.384-6.5966-12.718 15.471-48.433 34.696-94.049 56.646-137.6 19.439-38.573 40.976-75.515 63.911-111.36-64.257-6.1463-129.08-9.488-194.49-10.021-64.848-0.52914-130.56 1.7131-197.13 6.7291 26.726 35.371 51.042 71.408 71.771 108.42z"/>
 <path class="fil3" d="m1218.2 1097.5c-7.0034-6.216-16.79-10.066-27.683-10.066-10.895 0-20.68 3.8503-27.685 10.066-6.6663 5.9177-10.793 14.04-10.793 22.949 0 8.9086 4.1269 17.027 10.795 22.947 7.0034 6.216 16.787 10.066 27.682 10.066 10.894 0 20.678-3.8503 27.681-10.066 6.6686-5.92 10.795-14.039 10.795-22.947 0-8.9086-4.1269-17.031-10.793-22.949z"/>
 <path class="fil3" d="m1723.9 1167.5c-3.8103-1.1783-7.624-2.3451-11.441-3.4983-2.656-0.448-5.4149-0.68571-8.2514-0.68571-11.049 0-20.943 3.5646-28 9.32-6.4709 5.2777-10.478 12.431-10.478 20.193 0 7.7634 4.0069 14.915 10.478 20.194 7.0571 5.7543 16.951 9.3189 28 9.3189s20.943-3.5646 27.999-9.3189c6.4709-5.2789 10.478-12.431 10.478-20.194 0-7.7623-4.0069-14.915-10.478-20.193-2.448-1.9966-5.2457-3.7246-8.3063-5.136z"/>
 <path class="fil3" d="m696.41 1156.8c-6.4137 1.8811-12.811 3.7954-19.189 5.7486-2.0594 1.2171-3.9703 2.5989-5.712 4.1269-6.6411 5.8274-10.752 13.813-10.752 22.56 0 8.7486 4.112 16.731 10.754 22.559 7.0126 6.1554 16.811 9.9646 27.722 9.9646 10.913 0 20.711-3.8091 27.723-9.9646 6.6411-5.8274 10.754-13.81 10.754-22.559 0-8.7474-4.1109-16.733-10.752-22.56-7.0126-6.1554-16.813-9.9646-27.726-9.9646-0.94743 0-1.8937 0.032-2.824 0.089143z"/>
 <path class="fil3" d="m1451.2 1171.6c6.3966 0.90514 12.798 1.8389 19.199 2.8137 9.5886-0.68114 18.139-4.3417 24.431-9.9029 6.6663-5.8949 10.794-13.971 10.794-22.825 0-8.8537-4.128-16.93-10.794-22.825-4.1394-3.6583-9.2629-6.4891-15.009-8.1943-3.8011-0.61029-7.6023-1.2149-11.403-1.8011-0.42286-0.011429-0.84229-0.020571-1.2697-0.020571-10.903 0-20.686 3.832-27.682 10.016-6.6663 5.8949-10.794 13.971-10.794 22.825 0 8.8537 4.128 16.93 10.794 22.825 3.3394 2.9497 7.3074 5.3691 11.735 7.0891z"/>
 <path class="fil3" d="m925.19 1174.6c4.7291-0.73257 9.4583-1.4446 14.187-2.1383 5.3634-1.7749 10.155-4.5851 14.081-8.1543 6.7394-6.1303 10.912-14.543 10.912-23.775s-4.1726-17.646-10.912-23.775c-6.6526-6.0503-15.793-9.9063-25.985-10.269-5.3211 0.78171-10.637 1.592-15.943 2.4217-5.008 1.7829-9.4914 4.4731-13.2 7.8469-6.7394 6.1291-10.913 14.543-10.913 23.775s4.1737 17.645 10.913 23.775c6.8423 6.2206 16.315 10.128 26.859 10.293z"/>
 <path class="fil3" d="m886.58 1181c-0.65486-0.54514-1.2914-1.104-1.9189-1.6743-10.866-9.8834-17.591-23.598-17.591-38.797 0-9.1429 2.4297-17.742 6.7314-25.297-47.445 8.4869-94.237 18.891-140.17 31.192 2.3669 1.5383 4.6091 3.2229 6.6903 5.0503 10.962 9.6217 17.749 22.994 17.749 37.822 0 7.2057-1.6103 14.067-4.5154 20.322 44.199-11.203 88.542-20.75 133.03-28.618z"/>
 <path class="fil3" d="m1145 1154.3c-8.3611-9.2206-13.367-20.994-13.367-33.842 0-12.225 4.5337-23.472 12.177-32.478-59.613 1.4891-118.84 5.9006-177.3 13.167l0.60686 0.53943c10.866 9.8811 17.591 23.597 17.591 38.797 0 9.7509-2.7726 18.896-7.6286 26.806 55.73-6.9737 111.7-11.319 167.92-12.989z"/>
 <path class="fil3" d="m1415.3 1166.8c-4.4811-7.4983-7.016-16.075-7.016-25.198 0-14.897 6.7714-28.334 17.71-38.005l0.84343-0.73257c-63.177-8.2617-126.56-13.182-189.71-14.829 7.6171 8.9989 12.138 20.224 12.138 32.425 0 12.681-4.8857 24.314-13.051 33.48 59.409 1.2914 119.1 5.5589 179.08 12.858z"/>
 <path class="fil3" d="m1649 1210.3c-2.3806-5.4171-3.6766-11.281-3.6766-17.423 0-14.149 6.8914-26.848 18.026-35.931 2.2217-1.8126 4.6114-3.4754 7.1543-4.9771-49.917-13.721-100.33-25.208-151.01-34.513 4.1166 7.2549 6.4377 15.463 6.4377 24.181 0 14.897-6.7714 28.333-17.709 38.005l-0.85029 0.73714c47.017 8.1109 94.223 18.073 141.62 29.922z"/>
 <path class="fil3" d="m569.01 884.11c-10.033-70.903-48.96-76.67-87.885-82.429-12.73-1.8834-25.458-3.7646-37.621-7.4937l93.984 201.01c10.698-13.539 19.027-28.087 24.583-43.79 7.1543-20.224 9.7531-42.533 6.9383-67.302z"/>
 <path class="fil3" d="m796.07 889.63c-14.037 7.4389-23.086 17.64-26.606 28.091-1.9394 5.7577-2.1611 11.598-0.54743 16.999 1.624 5.4331 5.184 10.585 10.799 14.952 11.694 9.0994 31.677 14.688 61.021 13.104 4.9349-19.426 4.0411-35.005-2.696-46.723-7.0891-12.329-21.085-21.136-41.97-26.423z"/>
 <path class="fil3" d="m947.94 963.63c2.5097-5.12 5.5897-9.5543 8.6606-13.984 7.6023-10.955 15.205-21.919 6.3406-46.251-0.11771-0.32343-0.216-0.648-0.29714-0.97486-3.1394-10.486-9.6331-18.463-18.946-24.309-8.7474-5.4937-20.018-9.2343-33.39-11.513-21.493 43.383-8.9497 75.731 37.632 97.032z"/>
 <path class="fil3" d="m1106.7 822.59c-38.399 2.0274-65.957 11.874-81.521 25.875-7.6846 6.912-12.242 14.782-13.479 23.053-1.2514 8.368 0.78857 17.491 6.3131 26.827 11.752 19.869 38.369 40.115 81.503 56.51 13.594-3.1051 24.453-7.9554 32.551-14.538 7.8766-6.4057 13.251-14.621 16.107-24.638-0.65829-20.695-4.9989-38.685-12.45-54.374-7-14.738-16.845-27.531-29.024-38.715z"/>
 <path class="fil3" d="m1272.1 806.16c-3.736-12.584-7.696-26.309-11.349-38.959-18.334-63.478-27.784-96.19-43.837-97.634-10.784-0.97029-24.007 9.6857-39.653 31.966-16.701 23.777-34.943 59.779-54.705 107.98 13.094 12.44 23.79 26.694 31.595 43.131 7.8891 16.613 12.746 35.392 14.071 56.687 10.849 3.1817 21.413 5.4331 31.849 5.656 10.561 0.22629 21.289-1.6434 32.55-6.8126 2.2263-40.709 15.39-74.713 39.478-102.01z"/>
 <path class="fil3" d="m1321 963.96c41.621-28.394 61.203-54.034 56.526-76.618-4.808-23.214-34.469-45.479-91.203-66.709-21.13 24.473-32.371 55.287-33.714 92.437 4.6789 13.066 12.675 23.818 23.975 32.24 11.387 8.488 26.193 14.709 44.417 18.65z"/>
 <path class="fil3" d="m1490.3 874.19c-16.866-2.2389-30.759 2.6469-40.085 11.354-5.1989 4.8526-9.0137 10.898-11.149 17.533-2.1406 6.656-2.6046 13.936-1.0949 21.227 2.9326 14.152 13.403 28.498 33.557 39.022 43.865-13.104 50.125-42.817 18.771-89.136z"/>
 <path class="fil3" d="m1606.2 988.7c18.767-5.6229 31.306-15.52 37.577-26.803 3.5269-6.3417 5.0366-13.182 4.5131-19.906-0.52229-6.7131-3.1131-13.393-7.7886-19.435-8.9783-11.602-25.473-20.886-49.749-24.257-12.819 12.193-20.206 25.002-19.251 38.736 1.0331 14.841 11.474 31.821 34.698 51.666z"/>
 <path class="fil3" d="m1908 927.91l4.784-13.432c14.071-39.629 28.126-79.209 47.421-114.9-30.946 7.0937-58.173 18.417-80.031 35.84-22.99 18.321-40.235 43.659-49.843 78.28 15.583-3.368 29.918-3.8309 42.992-1.3897 12.915 2.4137 24.469 7.6171 34.678 15.598z"/>
 <path class="fil3" d="m1842 1052.1c10.859-8.7646 20.837-18.125 27.083-30.118 12.073-23.179 22.111-48.147 31.526-73.651-8.8674-8.488-19.208-13.843-31.021-16.049-13.186-2.4617-28.429-1.1029-45.709 4.0743-8.5017 19.097-11.085 38.45-7.7509 58.056 3.1909 18.775 11.814 38.009 25.871 57.688z"/>
 <path class="fil3" d="m1775.5 1131.1c4.8617-11.025 10.282-21.55 16.405-31.432 9.0434-14.599 21.326-25.119 34.015-35.057-16.153-22.446-26.105-44.744-29.865-66.869-3.9497-23.248-1.0606-46.081 8.688-68.495-14.301-17.992-28.914-24.528-41.246-22.923-6.3657 0.82857-12.297 3.8606-17.339 8.592-5.408 5.0743-9.8103 12.064-12.723 20.423-8.6949 24.952-4.0674 61.21 25.368 95.992 3.6217 4.28 3.0869 10.688-1.192 14.31-1.5063 1.2731-3.2869 2.0411-5.104 2.3029-34.478 7.0903-65.253 8.1006-91.464 1.832-26.805-6.4126-48.694-20.291-64.745-42.846-30.066-24.856-43.578-47.514-45.041-68.534-1.4789-21.256 9.1291-39.769 27.393-56.498 8.2331-24.333 3.5303-43.303-6.768-54.507-4.672-5.08-10.483-8.576-16.675-10.21-6.1063-1.6114-12.614-1.4286-18.784 0.80571-13.081 4.7394-24.933 18.749-29.544 44.47 43.059 63.035 32.25 103.42-32.405 121.15-31.363 18.665-60.439 29.395-86.701 30.194-26.757 0.816-50.255-8.4446-69.885-29.745-21.647-4.552-39.45-12.04-53.415-22.448-12.03-8.9703-21.167-20.048-27.395-33.238-12.803 5.2354-25.177 7.1486-37.441 6.888-11.794-0.25029-23.262-2.5234-34.803-5.7829-4.3611 10.461-11.007 19.321-19.938 26.585-10.794 8.776-24.826 15.064-42.074 18.85-28.175 19.393-54.993 30.12-80.438 32.174-26.202 2.112-50.706-4.8914-73.49-21.016-68.977-27.31-87.227-71.449-54.734-132.42-2.1406-12.882-7.1109-24.229-14.189-34.417-6.6537-9.5806-15.139-18.161-24.885-26.063-15.249 10.483-26.617 22.554-34.645 35.989-7.6149 12.744-12.315 26.869-14.545 42.138 23.809 6.8994 40.385 18.459 49.711 34.679 10.339 17.983 11.296 40.885 2.8834 68.69-0.41486 1.8526-1.3326 3.5269-2.6251 4.8583-28.306 33.406-57.309 55.272-87.001 65.581-30.57 10.616-61.497 8.9589-92.767-4.9646-5.1143-2.2811-7.4091-8.28-5.128-13.394 0.52457-1.176 1.2514-2.1954 2.1143-3.0514l-8e-3 -8e-3c14.647-14.589 26.376-30.938 33.648-49.885 7.0343-18.326 9.9931-39.336 7.5109-63.869-23.625-33.725-65.053-40.408-124.28-20.047 1.8057 24.778-1.344 47.445-8.7211 68.298-7.4103 20.949-19.064 39.966-34.235 57.358l50.053 107.06c23.086-1.3589 43.878-6.6697 62.958-14.915 20.969-9.0606 40.045-21.781 57.927-36.782 2.9771-2.488 6.9646-2.9806 10.33-1.624 31.992 11.542 59.581 5.4251 82.643-7.2309 24.093-13.221 43.834-33.759 58.626-49.334 2.9074-3.056 7.2743-3.9006 10.986-2.48 53.926 17.123 105.95 23.686 156.06 19.677 50.146-4.008 98.406-18.629 144.76-43.847 3.1383-1.7086 6.7749-1.5829 9.696 0.0045714l0.0022857-0.0045714c48.045 26.207 99.533 42.165 154.45 47.864 55.146 5.7234 113.79 1.1314 175.91-13.778 3.8777-0.92114 7.7611 0.52686 10.145 3.4023l0.028571-0.024c25.623 31.001 54.442 51.577 86.445 61.714 32.026 10.149 67.551 9.9486 106.56-0.59543 5.4206-1.4469 10.992 1.7726 12.439 7.1931 0.10057 0.376 0.17143 0.75429 0.22857 1.1314 1.6171 9.3131 6.0457 17.259 13.277 23.842 6.2457 5.6846 14.574 10.453 24.989 14.293z"/>
 <path class="fil3" d="m651.26 1238.6c5.3211-1.6651 10.653-3.3006 15.979-4.9166-3.2697-1.9109-6.3097-4.096-9.0834-6.5291-10.963-9.6217-17.75-22.994-17.75-37.821 0-5.5074 0.93257-10.81 2.672-15.8-6.4206 2.1257-12.822 4.2971-19.201 6.4971l27.383 58.569z"/>
 <path class="fil3" d="m1739.3 1256.3c-90.629-27.369-180.5-47.811-269.67-61.497-0.84 0.032-1.68 0.052571-2.5291 0.052571-7.376 0-14.455-1.2457-20.979-3.5063-85.139-11.951-169.64-17.731-253.56-17.494-0.70743 0.022857-1.4114 0.033143-2.1257 0.033143-0.54971 0-1.1017-0.0045714-1.6469-0.018286-82.018 0.41257-163.5 6.5703-244.49 18.357-5.7349 1.7554-11.854 2.72-18.206 2.7429-89.304 13.936-178.01 34.71-266.19 62.142l16.435 35.152c184.77-53.962 365.24-80.126 541.6-79.705 175.44 0.41943 346.66 27.125 513.85 78.887 1.3326-6.1851 2.8469-13.271 4.3486-20.329 1.0514-4.9429 2.1017-9.888 3.16-14.816z"/>
 <path class="fil3" d="m1745.5 1228.4l-0.52686 0.44c-2.5017 2.0389-5.2263 3.8891-8.128 5.5326l6.84 2.0457c0.59771-2.6789 1.2023-5.352 1.8149-8.0183z"/>
 <path class="fil3" d="m615.23 1161.5c17.854-6.192 35.875-12.089 54.047-17.683 7.0469-3.7554 15.04-6.2343 23.563-7.0686 69.35-20.224 140.79-36.117 213.62-47.577 6.0869-1.9714 12.633-3.0537 19.431-3.0537l0.66514 0.0057143c85.167-12.408 172.13-18.782 259.74-18.93l1.824 0.0022857c0.77714-0.028571 1.5623-0.044571 2.3463-0.044571 0.82971 0 1.6514 0.020571 2.4743 0.050286 92.009 0.176 184.7 7.2206 276.77 21.32 5.1326 0.20114 10.097 1.0069 14.818 2.3314 78.251 12.634 156.01 30.381 232.45 53.378 4.8926 0.92343 9.5577 2.36 13.911 4.2423 11.253 3.4823 22.472 7.0857 33.662 10.799 1.0834-3.1497 2.1977-6.2686 3.3451-9.3577-12.677-4.7371-23.024-10.765-31.051-18.072-7.9051-7.1966-13.55-15.547-16.923-25.065-39.006 9.0411-75.017 8.3291-108.03-2.1303-34.097-10.801-64.743-31.917-91.918-63.337-62.154 14.312-121.01 18.581-176.56 12.816-55.759-5.7874-108.18-21.669-157.24-47.643-47.469 25.04-96.808 39.611-148 43.704-50.921 4.0743-103.68-2.232-158.27-18.914-15.205 15.872-34.837 35.211-59.216 48.589-26.374 14.472-57.76 21.778-94.127 10.274-17.937 14.526-37.215 26.949-58.52 36.157-18.952 8.1909-39.4 13.771-61.814 15.935l9.0103 19.274z"/>
</svg>
